<?xml version="1.0" encoding="utf-8"?>
<!-- Generator: Adobe Illustrator 23.0.2, SVG Export Plug-In . SVG Version: 6.00 Build 0)  -->
<svg version="1.1" id="Calque_1" xmlns="http://www.w3.org/2000/svg" xmlns:xlink="http://www.w3.org/1999/xlink" x="0px" y="0px"
	 viewBox="0 0 24 24" style="enable-background:new 0 0 24 24;" xml:space="preserve">
<style type="text/css">
	.st0{fill:#FFFFFF;}
</style>
<title>Bold/SVG/chevrons-left</title>
<desc>Created with Sketch.</desc>
<g id="Bold-Outline">
	<g id="chevrons-left">
		<path id="shape" class="st0" d="M6,12.3c0.1,0.7,0.4,1.5,1,2l7.3,6.5c0.4,0.4,1,0.3,1.4-0.1c0.4-0.4,0.3-1-0.1-1.4l-7.3-6.5
			c-0.4-0.4-0.5-1-0.1-1.4c0,0,0.1-0.1,0.1-0.1l7.3-6.5c0.4-0.4,0.4-1,0.1-1.4c-0.4-0.4-1-0.4-1.4-0.1L7,9.8C6.9,9.9,6.8,10,6.8,10
			c-0.4,0.5-0.6,1-0.7,1.5c0,0.1,0,0.3,0,0.4C6,12.1,6,12.2,6,12.3L6,12.3z"/>
	</g>
</g>
</svg>
