<?xml version="1.0" encoding="utf-8"?>
<!-- Generator: Adobe Illustrator 23.0.2, SVG Export Plug-In . SVG Version: 6.00 Build 0)  -->
<svg version="1.1" id="Calque_1" xmlns="http://www.w3.org/2000/svg" xmlns:xlink="http://www.w3.org/1999/xlink" x="0px" y="0px"
	 viewBox="0 0 24 24" style="enable-background:new 0 0 24 24;" xml:space="preserve">
<style type="text/css">
	.st0{fill:#FFFFFF;}
</style>
<title>Bold/SVG/chevrons-right</title>
<desc>Created with Sketch.</desc>
<g id="Bold-Outline">
	<g id="chevrons-right">
		<path id="shape" class="st0" d="M8.3,4.7l7.3,6.5c0.4,0.4,0.5,1,0.1,1.4c0,0-0.1,0.1-0.1,0.1l-7.3,6.5c-0.4,0.4-0.4,1-0.1,1.4
			c0.4,0.4,1,0.4,1.4,0.1l7.3-6.5c0.1-0.1,0.2-0.2,0.2-0.2c1.1-1.2,1-3.1-0.3-4.2L9.7,3.3c-0.4-0.4-1-0.3-1.4,0.1
			C7.9,3.8,7.9,4.4,8.3,4.7z"/>
	</g>
</g>
</svg>
