<?xml version="1.0" encoding="UTF-8" standalone="no"?>
<svg
   xmlns:dc="http://purl.org/dc/elements/1.1/"
   xmlns:cc="http://creativecommons.org/ns#"
   xmlns:rdf="http://www.w3.org/1999/02/22-rdf-syntax-ns#"
   xmlns:svg="http://www.w3.org/2000/svg"
   xmlns="http://www.w3.org/2000/svg"
   xmlns:sodipodi="http://sodipodi.sourceforge.net/DTD/sodipodi-0.dtd"
   xmlns:inkscape="http://www.inkscape.org/namespaces/inkscape"
   version="1.1"
   id="svg2"
   xml:space="preserve"
   width="566.92932"
   height="188.976"
   viewBox="0 0 566.92932 188.976"
   sodipodi:docname="creationdelogo.pro.ai"><metadata
     id="metadata8"><rdf:RDF><cc:Work
         rdf:about=""><dc:format>image/svg+xml</dc:format><dc:type
           rdf:resource="http://purl.org/dc/dcmitype/StillImage" /></cc:Work></rdf:RDF></metadata><defs
     id="defs6"><clipPath
       clipPathUnits="userSpaceOnUse"
       id="clipPath20"><path
         d="M 0,141.732 H 425.197 V 0 H 0 Z"
         id="path18" /></clipPath></defs><sodipodi:namedview
     pagecolor="#ffffff"
     bordercolor="#666666"
     borderopacity="1"
     objecttolerance="10"
     gridtolerance="10"
     guidetolerance="10"
     inkscape:pageopacity="0"
     inkscape:pageshadow="2"
     inkscape:window-width="640"
     inkscape:window-height="480"
     id="namedview4" /><g
     id="g10"
     inkscape:groupmode="layer"
     inkscape:label="creationdelogo.pro"
     transform="matrix(1.3333333,0,0,-1.3333333,0,188.976)"><path
       d="M 0,0 H 425.197 V 141.732 H 0 Z"
       style="fill:#1d1d1b;fill-opacity:1;fill-rule:nonzero;stroke:none"
       id="path12" /><g
       id="g14"><g
         id="g16"
         clip-path="url(#clipPath20)"><g
           id="g22"
           transform="translate(48.4426,60.9864)"><path
             d="m 0,0 c -2.914,0 -5.364,1.026 -7.353,3.078 -1.989,2.052 -2.983,4.496 -2.983,7.334 0,2.888 1.007,5.338 3.021,7.353 2.014,2.014 4.452,3.021 7.315,3.021 2.128,0 4.041,-0.596 5.738,-1.786 1.697,-1.191 2.926,-2.75 3.686,-4.674 L 6.384,13.604 C 5.827,14.87 4.978,15.896 3.838,16.682 2.698,17.467 1.418,17.86 0,17.86 c -2.027,0 -3.743,-0.729 -5.149,-2.185 -1.406,-1.457 -2.109,-3.211 -2.109,-5.263 0,-2.078 0.703,-3.838 2.109,-5.282 C -3.743,3.686 -2.027,2.964 0,2.964 c 1.418,0 2.698,0.386 3.838,1.159 1.14,0.773 1.989,1.792 2.546,3.059 L 9.424,6.46 C 8.664,4.534 7.435,2.977 5.738,1.786 4.041,0.595 2.128,0 0,0"
             style="fill:#ffffff;fill-opacity:1;fill-rule:nonzero;stroke:none"
             id="path24" /></g><g
           id="g26"
           transform="translate(61.4001,61.2901)"><path
             d="m 0,0 v 20.14 h 3.23 v -3.952 c 0.633,1.52 1.666,2.647 3.097,3.382 1.431,0.735 3.148,0.95 5.149,0.646 v -3.42 C 9.196,17.378 7.251,17.043 5.643,15.789 4.034,14.535 3.23,12.654 3.23,10.146 V 0 Z"
             style="fill:#ffffff;fill-opacity:1;fill-rule:nonzero;stroke:none"
             id="path28" /></g><g
           id="g30"
           transform="translate(77.3606,72.7661)"><path
             d="M 0,0 H 14.06 C 13.832,1.722 13.065,3.173 11.761,4.351 10.456,5.529 8.892,6.118 7.068,6.118 5.218,6.118 3.629,5.529 2.299,4.351 0.969,3.173 0.203,1.722 0,0 m 7.106,-11.78 c -2.888,0 -5.333,1.02 -7.334,3.059 -2.001,2.039 -3.002,4.49 -3.002,7.353 0,2.888 1.007,5.339 3.021,7.353 2.014,2.014 4.452,3.021 7.315,3.021 2.559,0 4.794,-0.855 6.707,-2.565 1.913,-1.71 3.046,-3.832 3.401,-6.365 0.177,-0.988 0.19,-1.862 0.038,-2.622 L 0,-2.546 c 0.177,-1.874 0.937,-3.395 2.28,-4.56 1.343,-1.165 2.951,-1.748 4.826,-1.748 1.292,0 2.508,0.291 3.648,0.874 1.14,0.583 2.064,1.368 2.774,2.356 l 2.926,-0.684 C 15.643,-7.955 14.37,-9.279 12.635,-10.279 10.899,-11.28 9.057,-11.78 7.106,-11.78"
             style="fill:#ffffff;fill-opacity:1;fill-rule:nonzero;stroke:none"
             id="path32" /></g><g
           id="g34"
           transform="translate(107.1902,63.9502)"><path
             d="m 0,0 c 2.026,0 3.755,0.728 5.187,2.186 1.431,1.456 2.147,3.21 2.147,5.262 0,2.026 -0.716,3.774 -2.147,5.244 -1.432,1.469 -3.161,2.204 -5.187,2.204 -2.052,0 -3.788,-0.729 -5.206,-2.185 C -6.625,11.254 -7.334,9.5 -7.334,7.448 -7.334,5.37 -6.625,3.61 -5.206,2.166 -3.788,0.722 -2.052,0 0,0 m -0.266,-2.964 c -2.812,0 -5.2,1.02 -7.163,3.059 -1.964,2.039 -2.945,4.49 -2.945,7.353 0,2.888 0.981,5.339 2.945,7.353 1.963,2.014 4.351,3.021 7.163,3.021 1.571,0 3.008,-0.368 4.313,-1.102 1.305,-0.735 2.337,-1.71 3.097,-2.926 v 3.686 h 3.23 V -2.66 H 7.144 V 1.026 C 6.384,-0.189 5.352,-1.159 4.047,-1.881 2.742,-2.603 1.305,-2.964 -0.266,-2.964"
             style="fill:#ffffff;fill-opacity:1;fill-rule:nonzero;stroke:none"
             id="path36" /></g><g
           id="g38"
           transform="translate(134.2458,61.4043)"><path
             d="M 0,0 C -3.04,-0.785 -5.434,-0.646 -7.182,0.418 -8.93,1.482 -9.804,3.395 -9.804,6.156 l 0.038,11.058 h -4.18 v 2.812 h 4.18 v 5.472 h 3.192 v -5.472 h 6.536 V 17.214 H -6.574 L -6.612,6.194 c 0,-1.622 0.545,-2.705 1.634,-3.249 C -3.889,2.4 -2.229,2.457 0,3.116 Z"
             style="fill:#ffffff;fill-opacity:1;fill-rule:nonzero;stroke:none"
             id="path40" /></g><path
           d="m 138.046,81.43 h 3.23 V 61.29 h -3.23 z m 3.287,3.838 c -0.444,-0.431 -0.982,-0.646 -1.615,-0.646 -0.634,0 -1.172,0.215 -1.615,0.646 -0.444,0.431 -0.665,0.962 -0.665,1.596 0,0.633 0.221,1.172 0.665,1.615 0.443,0.443 0.981,0.665 1.615,0.665 0.633,0 1.171,-0.222 1.615,-0.665 0.443,-0.443 0.665,-0.982 0.665,-1.615 0,-0.634 -0.222,-1.165 -0.665,-1.596"
           style="fill:#ffffff;fill-opacity:1;fill-rule:nonzero;stroke:none"
           id="path42" /><g
           id="g44"
           transform="translate(155.5256,63.9883)"><path
             d="m 0,0 c 2.052,0 3.781,0.722 5.187,2.166 1.406,1.444 2.109,3.192 2.109,5.244 0,2.052 -0.709,3.8 -2.128,5.244 C 3.749,14.098 2.027,14.82 0,14.82 -2.027,14.82 -3.743,14.098 -5.149,12.654 -6.555,11.21 -7.258,9.462 -7.258,7.41 -7.258,5.332 -6.555,3.578 -5.149,2.147 -3.743,0.716 -2.027,0 0,0 M 7.315,0.057 C 5.301,-1.982 2.863,-3.002 0,-3.002 c -2.863,0 -5.295,1.02 -7.296,3.059 -2.001,2.039 -3.002,4.49 -3.002,7.353 0,2.862 1.001,5.307 3.002,7.334 2.001,2.026 4.433,3.04 7.296,3.04 2.863,0 5.301,-1.02 7.315,-3.059 2.014,-2.04 3.021,-4.478 3.021,-7.315 0,-2.863 -1.007,-5.314 -3.021,-7.353"
             style="fill:#ffffff;fill-opacity:1;fill-rule:nonzero;stroke:none"
             id="path46" /></g><g
           id="g48"
           transform="translate(169.0535,61.2901)"><path
             d="m 0,0 v 20.14 h 3.23 v -3.458 c 0.684,1.114 1.621,2.026 2.812,2.736 1.19,0.709 2.571,1.064 4.142,1.064 2.331,0 4.332,-0.754 6.004,-2.261 1.672,-1.508 2.508,-3.515 2.508,-6.023 V 0 h -3.23 v 11.21 c 0,2.001 -0.564,3.546 -1.691,4.636 -1.128,1.089 -2.514,1.634 -4.161,1.634 -1.849,0 -3.376,-0.678 -4.579,-2.033 C 3.832,14.091 3.23,12.375 3.23,10.298 V 0 Z"
             style="fill:#ffffff;fill-opacity:1;fill-rule:nonzero;stroke:none"
             id="path50" /></g><g
           id="g52"
           transform="translate(201.3533,63.9121)"><path
             d="M 0,0 C 2.026,0 3.762,0.734 5.206,2.204 6.65,3.673 7.372,5.421 7.372,7.448 7.372,9.5 6.656,11.254 5.225,12.711 3.793,14.167 2.052,14.896 0,14.896 c -2.027,0 -3.75,-0.722 -5.168,-2.166 -1.419,-1.444 -2.128,-3.205 -2.128,-5.282 0,-2.052 0.703,-3.806 2.109,-5.262 C -3.781,0.729 -2.052,0 0,0 m -0.266,-2.964 c -2.787,0 -5.168,1.027 -7.144,3.078 -1.976,2.052 -2.964,4.496 -2.964,7.334 0,2.888 0.981,5.345 2.945,7.372 1.963,2.026 4.351,3.04 7.163,3.04 1.57,0 3.008,-0.361 4.313,-1.083 1.305,-0.722 2.349,-1.704 3.135,-2.945 v 10.146 h 3.23 v -26.6 H 7.182 V 1.064 C 6.396,-0.151 5.352,-1.127 4.047,-1.862 2.742,-2.597 1.304,-2.964 -0.266,-2.964"
             style="fill:#ffffff;fill-opacity:1;fill-rule:nonzero;stroke:none"
             id="path54" /></g><g
           id="g56"
           transform="translate(218.6819,72.7661)"><path
             d="M 0,0 H 14.06 C 13.832,1.722 13.065,3.173 11.761,4.351 10.456,5.529 8.892,6.118 7.067,6.118 5.218,6.118 3.629,5.529 2.299,4.351 0.969,3.173 0.202,1.722 0,0 m 7.105,-11.78 c -2.887,0 -5.333,1.02 -7.334,3.059 -2,2.039 -3.001,4.49 -3.001,7.353 0,2.888 1.006,5.339 3.021,7.353 2.014,2.014 4.452,3.021 7.314,3.021 2.559,0 4.794,-0.855 6.708,-2.565 1.913,-1.71 3.045,-3.832 3.401,-6.365 0.177,-0.988 0.189,-1.862 0.038,-2.622 L 0,-2.546 c 0.177,-1.874 0.937,-3.395 2.279,-4.56 1.343,-1.165 2.951,-1.748 4.826,-1.748 1.292,0 2.508,0.291 3.649,0.874 1.14,0.583 2.064,1.368 2.773,2.356 l 2.927,-0.684 C 15.643,-7.955 14.37,-9.279 12.635,-10.279 10.899,-11.28 9.057,-11.78 7.105,-11.78"
             style="fill:#ffffff;fill-opacity:1;fill-rule:nonzero;stroke:none"
             id="path58" /></g><path
           d="m 239.543,87.89 h 4.37 v -26.6 h -4.37 z"
           style="fill:#ffffff;fill-opacity:1;fill-rule:nonzero;stroke:none"
           id="path60" /><g
           id="g62"
           transform="translate(253.26,66.8955)"><path
             d="m 0,0 c 1.217,-1.254 2.698,-1.881 4.446,-1.881 1.748,0 3.231,0.627 4.447,1.881 1.215,1.254 1.824,2.754 1.824,4.502 0,1.748 -0.609,3.249 -1.824,4.503 C 7.677,10.26 6.194,10.887 4.446,10.887 2.698,10.887 1.217,10.26 0,9.005 -1.216,7.751 -1.823,6.25 -1.823,4.502 -1.823,2.754 -1.216,1.254 0,0 m 4.446,-5.909 c -2.863,0 -5.3,1.026 -7.314,3.078 -2.015,2.052 -3.022,4.496 -3.022,7.333 0,2.863 1.007,5.308 3.022,7.334 2.014,2.027 4.451,3.04 7.314,3.04 2.863,0 5.301,-1.02 7.316,-3.059 2.013,-2.039 3.02,-4.478 3.02,-7.315 0,-2.862 -1.013,-5.314 -3.04,-7.353 C 9.716,-4.89 7.283,-5.909 4.446,-5.909"
             style="fill:#ffffff;fill-opacity:1;fill-rule:nonzero;stroke:none"
             id="path64" /></g><g
           id="g66"
           transform="translate(280.8869,65.4707)"><path
             d="M 0,0 C 1.748,0 3.249,0.601 4.503,1.805 5.757,3.008 6.384,4.47 6.384,6.193 6.384,7.916 5.763,9.385 4.521,10.602 3.28,11.817 1.772,12.425 0,12.425 c -1.748,0 -3.236,-0.602 -4.465,-1.805 -1.229,-1.203 -1.844,-2.679 -1.844,-4.427 0,-1.748 0.622,-3.217 1.863,-4.408 C -3.205,0.595 -1.724,0 0,0 m 0.494,-12.883 c -2.331,0 -4.428,0.641 -6.289,1.919 -1.862,1.28 -3.085,3.161 -3.667,5.644 h 4.37 c 0.43,-1.242 1.164,-2.154 2.203,-2.737 1.039,-0.582 2.154,-0.874 3.345,-0.874 1.647,0 2.995,0.52 4.047,1.559 1.051,1.039 1.589,2.584 1.615,4.636 v 1.672 c -1.571,-1.901 -3.737,-2.85 -6.498,-2.85 -2.889,0 -5.282,0.969 -7.182,2.906 -1.9,1.939 -2.85,4.338 -2.85,7.201 0,2.913 0.962,5.339 2.888,7.277 1.924,1.938 4.306,2.882 7.144,2.831 2.685,0 4.851,-0.988 6.498,-2.964 v 2.622 h 4.37 V -2.622 c 0,-3.192 -0.957,-5.7 -2.869,-7.524 -1.913,-1.825 -4.288,-2.737 -7.125,-2.737"
             style="fill:#ffffff;fill-opacity:1;fill-rule:nonzero;stroke:none"
             id="path68" /></g><g
           id="g70"
           transform="translate(300.6086,66.8955)"><path
             d="m 0,0 c 1.216,-1.254 2.698,-1.881 4.446,-1.881 1.748,0 3.23,0.627 4.446,1.881 1.216,1.254 1.824,2.754 1.824,4.502 0,1.748 -0.608,3.249 -1.824,4.503 C 7.676,10.26 6.194,10.887 4.446,10.887 2.698,10.887 1.216,10.26 0,9.005 -1.216,7.751 -1.824,6.25 -1.824,4.502 -1.824,2.754 -1.216,1.254 0,0 m 4.446,-5.909 c -2.863,0 -5.301,1.026 -7.315,3.078 -2.014,2.052 -3.021,4.496 -3.021,7.333 0,2.863 1.007,5.308 3.021,7.334 2.014,2.027 4.452,3.04 7.315,3.04 2.863,0 5.301,-1.02 7.315,-3.059 2.014,-2.039 3.021,-4.478 3.021,-7.315 0,-2.862 -1.013,-5.314 -3.04,-7.353 C 9.715,-4.89 7.283,-5.909 4.446,-5.909"
             style="fill:#ffffff;fill-opacity:1;fill-rule:nonzero;stroke:none"
             id="path72" /></g><g
           id="g74"
           transform="translate(340.1594,63.9121)"><path
             d="m 0,0 c 2.026,0 3.749,0.729 5.168,2.186 1.418,1.456 2.128,3.222 2.128,5.3 0,2.052 -0.703,3.8 -2.109,5.244 -1.406,1.444 -3.135,2.166 -5.187,2.166 -2.027,0 -3.762,-0.729 -5.206,-2.185 -1.444,-1.457 -2.166,-3.199 -2.166,-5.225 0,-2.051 0.716,-3.813 2.146,-5.282 C -3.794,0.734 -2.052,0 0,0 m -10.412,-10.602 v 28.12 h 3.229 v -3.61 c 0.786,1.191 1.825,2.147 3.117,2.869 1.292,0.722 2.736,1.083 4.332,1.083 2.787,0 5.168,-1.02 7.144,-3.059 1.976,-2.04 2.964,-4.478 2.964,-7.315 0,-2.887 -0.982,-5.345 -2.945,-7.372 -1.964,-2.027 -4.351,-3.04 -7.163,-3.04 -1.572,0 -3.009,0.362 -4.313,1.083 -1.306,0.722 -2.35,1.692 -3.136,2.907 v -11.666 z"
             style="fill:#ffffff;fill-opacity:1;fill-rule:nonzero;stroke:none"
             id="path76" /></g><g
           id="g78"
           transform="translate(353.7629,61.2901)"><path
             d="m 0,0 v 20.14 h 3.23 v -3.952 c 0.633,1.52 1.666,2.647 3.097,3.382 1.432,0.735 3.148,0.95 5.15,0.646 v -3.42 C 9.196,17.378 7.252,17.043 5.644,15.789 4.034,14.535 3.23,12.654 3.23,10.146 V 0 Z"
             style="fill:#ffffff;fill-opacity:1;fill-rule:nonzero;stroke:none"
             id="path80" /></g><g
           id="g82"
           transform="translate(376.7531,63.9883)"><path
             d="m 0,0 c 2.053,0 3.781,0.722 5.187,2.166 1.407,1.444 2.11,3.192 2.11,5.244 0,2.052 -0.71,3.8 -2.128,5.244 C 3.749,14.098 2.027,14.82 0,14.82 c -2.026,0 -3.742,-0.722 -5.148,-2.166 -1.407,-1.444 -2.11,-3.192 -2.11,-5.244 0,-2.078 0.703,-3.832 2.11,-5.263 C -3.742,0.716 -2.026,0 0,0 M 7.315,0.057 C 5.302,-1.982 2.863,-3.002 0,-3.002 c -2.862,0 -5.295,1.02 -7.296,3.059 -2.001,2.039 -3.002,4.49 -3.002,7.353 0,2.862 1.001,5.307 3.002,7.334 2.001,2.026 4.434,3.04 7.296,3.04 2.863,0 5.302,-1.02 7.315,-3.059 2.014,-2.04 3.022,-4.478 3.022,-7.315 0,-2.863 -1.008,-5.314 -3.022,-7.353"
             style="fill:#ffffff;fill-opacity:1;fill-rule:nonzero;stroke:none"
             id="path84" /></g><g
           id="g86"
           transform="translate(322.6067,68.0713)"><path
             d="m 0,0 c -0.896,0 -1.666,0.323 -2.313,0.968 -0.644,0.646 -0.967,1.416 -0.967,2.313 0,0.932 0.313,1.72 0.941,2.366 C -1.712,6.292 -0.932,6.615 0,6.615 0.933,6.615 1.722,6.292 2.366,5.647 3.012,5.001 3.335,4.213 3.335,3.281 3.335,2.348 3.012,1.568 2.366,0.941 1.722,0.314 0.933,0 0,0"
             style="fill:#d6006e;fill-opacity:1;fill-rule:nonzero;stroke:none"
             id="path88" /></g></g></g></g></svg>
