<?xml version="1.0" encoding="utf-8"?>
<!-- Generator: Adobe Illustrator 23.0.2, SVG Export Plug-In . SVG Version: 6.00 Build 0)  -->
<svg version="1.1" id="Calque_1" xmlns="http://www.w3.org/2000/svg" xmlns:xlink="http://www.w3.org/1999/xlink" x="0px" y="0px"
	 viewBox="0 0 24 24" style="enable-background:new 0 0 24 24;" xml:space="preserve">
<style type="text/css">
	.st0{fill:#FFFFFF;}
</style>
<title>Bold/SVG/home</title>
<desc>Created with Sketch.</desc>
<g id="Bold-Outline">
	<g id="home">
		<path id="shape" class="st0" d="M16,20.5h2c1.1,0,2-0.9,2-2V9.9c0-0.6-0.3-1.2-0.8-1.6l-6-4.4c-0.7-0.5-1.7-0.5-2.4,0l-6,4.4
			C4.3,8.7,4,9.3,4,9.9v8.6c0,1.1,0.9,2,2,2h2v-8c0-0.6,0.4-1,1-1h6c0.6,0,1,0.4,1,1V20.5z M14,20.5v-7h-4v7H14z M3.6,6.7l6-4.4
			c1.4-1,3.3-1,4.7,0l6,4.4c1,0.8,1.6,2,1.6,3.2v8.6c0,2.2-1.8,4-4,4H6c-2.2,0-4-1.8-4-4V9.9C2,8.6,2.6,7.4,3.6,6.7z"/>
	</g>
</g>
</svg>
