<?xml version="1.0" encoding="utf-8"?>
<!-- Generator: Adobe Illustrator 25.2.1, SVG Export Plug-In . SVG Version: 6.00 Build 0)  -->
<svg version="1.1" id="Calque_1" xmlns="http://www.w3.org/2000/svg" xmlns:xlink="http://www.w3.org/1999/xlink" x="0px" y="0px"
	 viewBox="0 0 24 24" style="enable-background:new 0 0 24 24;" xml:space="preserve">
<style type="text/css">
	.st0{fill:#FFFFFF;}
</style>
<desc>Created with Sketch.</desc>
<g id="Bold-Outline">
	<g id="info">
		<path id="shape" class="st0" d="M12,23C5.9,23,1,18.1,1,12S5.9,1,12,1s11,4.9,11,11S18.1,23,12,23z M12,21c5,0,9-4,9-9s-4-9-9-9
			s-9,4-9,9S7,21,12,21z M11.5,17.5V12h-1c-0.6,0-1-0.4-1-1s0.4-1,1-1h2c0.6,0,1,0.4,1,1v6.5c0,0.6-0.4,1-1,1S11.5,18.1,11.5,17.5z
			 M11,7c0-0.6,0.4-1,1-1s1,0.4,1,1s-0.4,1-1,1S11,7.6,11,7z"/>
	</g>
</g>
</svg>
