<?xml version="1.0" encoding="utf-8"?>
<!-- Generator: Adobe Illustrator 23.0.2, SVG Export Plug-In . SVG Version: 6.00 Build 0)  -->
<svg version="1.1" id="Layer_1" xmlns="http://www.w3.org/2000/svg" xmlns:xlink="http://www.w3.org/1999/xlink" x="0px" y="0px"
	 viewBox="0 0 1134.6 113.9" style="enable-background:new 0 0 1134.6 113.9;" xml:space="preserve">
<style type="text/css">
	.st0{fill:#FFFFFF;}
</style>
<g>
	<g>
		<path class="st0" d="M165,14.9h11.7l-44.2,30.6L178,77.3h-11.7l-41.6-28.6h-10.4v28.6h-7.8V14.9h7.8v27.3h10.4L165,14.9z"/>
		<path class="st0" d="M249.2,63h-48.8l-8.1,14.3h-9l35.6-62.4H230l35.4,62.4h-8.2L249.2,63z M245.5,56.5L224.8,20l-20.8,36.4H245.5
			z"/>
		<path class="st0" d="M348.3,77.3h-7.8V65.6c0-1.9,0-3.5-0.1-4.9c0-1.2-0.3-2.4-0.7-3.5c-0.4-0.9-1-1.8-1.9-2.4
			c-1.1-0.7-2.3-1.1-3.6-1.3c-1.9-0.4-3.9-0.6-5.9-0.7c-2.4-0.1-5.3-0.2-8.8-0.2h-35v24.6h-7.8V14.9h44.1c4,0,8,0.1,12,0.5
			c2.7,0.2,5.4,0.7,8.1,1.5c1.8,0.5,3.5,1.4,4.9,2.6c1.1,1,2,2.2,2.5,3.5c0.5,1.5,0.9,3,0.9,4.5c0.1,1.7,0.1,3.5,0.1,5.6
			c0,2.3-0.2,4.6-0.5,6.8c-0.3,1.8-0.9,3.5-1.9,5c-0.9,1.4-2,2.5-3.5,3.3c-1.7,0.9-3.5,1.5-5.4,1.7c1.8,0.2,3.6,0.8,5.2,1.7
			c1.3,0.8,2.3,1.9,3,3.2c0.8,1.4,1.2,3,1.4,4.6c0.2,2,0.4,4.1,0.4,6.1L348.3,77.3z M284.6,46.1h36.4c3.5,0,6.4-0.1,8.8-0.2
			c2-0.1,3.9-0.3,5.9-0.7c1.3-0.2,2.5-0.7,3.6-1.4c0.8-0.6,1.5-1.4,1.8-2.4c0.4-1.1,0.7-2.3,0.7-3.5c0.1-1.4,0.1-3,0.1-4.9
			s0-3.3-0.1-4.5c0-1.1-0.3-2.2-0.7-3.2c-0.4-0.9-1-1.6-1.9-2.1c-1.1-0.6-2.3-1-3.6-1.2c-1.9-0.3-3.9-0.5-5.9-0.5
			c-2.4-0.1-5.3-0.1-8.8-0.1h-36.3V46.1z"/>
		<path class="st0" d="M430.2,14.9v6.5H399v55.9h-7.8V21.4H360v-6.5H430.2z"/>
		<path class="st0" d="M443.2,77.3V14.9h62.4v6.5H451v20.8h52v6.5h-52v22.1h54.6v6.5H443.2z"/>
	</g>
	<g>
		<polygon class="st0" points="709.9,55.2 747,55.2 728.5,22.6 		"/>
		<path class="st0" d="M597.1,51.8c-0.4-0.6-1-1.1-1.7-1.5c-1.1-0.5-2.2-0.8-3.4-1c-1.8-0.3-3.6-0.5-5.5-0.5
			c-2.2-0.1-4.8-0.1-7.8-0.1h-35.1v20.9h35.1c3,0,5.6,0,7.8-0.1c1.8-0.1,3.7-0.2,5.5-0.6c1.2-0.2,2.3-0.6,3.3-1.2
			c0.7-0.4,1.4-1.1,1.8-1.9c0.5-1,0.8-2,0.9-3.1c0.2-1.6,0.3-3.2,0.3-4.8c0-1.3-0.1-2.5-0.3-3.8C597.9,53.3,597.6,52.5,597.1,51.8z"
			/>
		<path class="st0" d="M519.3,0v92h615.2V0L519.3,0z M608.2,64c-0.2,1.8-0.6,3.5-1.3,5.2c-0.7,1.6-1.7,3-3,4.2
			c-1.5,1.3-3.2,2.3-5.1,3c-2.4,0.8-4.9,1.4-7.4,1.7c-3.4,0.4-6.8,0.6-10.2,0.5h-48v-65h53.3c3.3-0.1,6.6,0.3,9.8,1
			c2.2,0.5,4.3,1.6,6,3.1c1.5,1.4,2.5,3.2,2.9,5.2c0.5,2.2,0.7,4.4,0.7,6.6c0,1.6-0.1,3.3-0.5,4.9c-0.3,1.3-0.7,2.5-1.3,3.7
			c-0.5,1-1.1,1.9-1.9,2.8c-0.6,0.7-1.4,1.3-2.1,1.8c-0.3,0.2-0.5,0.3-0.8,0.5c0.7,0.3,1.4,0.6,2,0.9c0.9,0.5,1.8,1.2,2.6,1.9
			c0.9,0.8,1.7,1.8,2.3,2.8c0.7,1.2,1.3,2.5,1.6,3.9c0.4,1.7,0.6,3.4,0.6,5.1C608.5,59.9,608.4,61.9,608.2,64L608.2,64z M680.8,78.6
			h-59.7V13.6h10.3v55.9h49.4V78.6z M760.2,78.6l-8.1-14.3h-47.4l-8.2,14.3h-11.9l37-64.9h12.7l36.9,64.9L760.2,78.6z M862.4,78.6
			h-12.1l-58.7-54.3v54.3h-10.3V13.6h15.4l55.4,52.9V13.6h10.3L862.4,78.6z M952.9,35.7h-10.3v-1.3c0.1-2.5-0.3-4.9-1-7.3
			c-0.5-1.5-1.6-2.8-3-3.6c-1.8-1-3.8-1.6-5.9-1.7c-3.2-0.3-6.4-0.4-9.7-0.4h-18.2c-3.4,0-6.3,0.1-8.6,0.3c-1.9,0.1-3.7,0.5-5.5,1.2
			c-1.2,0.4-2.2,1.2-3,2.3c-0.8,1.2-1.4,2.7-1.6,4.1c-0.4,2.3-0.6,4.6-0.6,6.9c-0.1,2.8-0.1,6.1-0.1,10s0,7.3,0.1,10
			c0,2.3,0.2,4.6,0.6,6.9c0.2,1.5,0.8,2.9,1.6,4.1c0.8,1,1.8,1.8,3,2.2c1.8,0.6,3.6,1,5.5,1.1c2.3,0.2,5.2,0.3,8.6,0.3h18.2
			c3,0,5.6-0.1,7.8-0.2c1.8-0.1,3.6-0.4,5.4-0.9c1.2-0.3,2.3-0.8,3.3-1.6c0.8-0.6,1.4-1.5,1.9-2.4c0.5-1.2,0.9-2.5,1-3.8
			c0.2-1.8,0.3-3.7,0.3-5.5v-1.2h10.3v1.2c0,2.4-0.2,4.8-0.5,7.2c-0.3,2.1-0.9,4.1-1.8,6c-0.9,1.8-2.1,3.3-3.6,4.6
			c-1.7,1.4-3.6,2.4-5.6,3.1c-2.5,0.9-5.2,1.5-7.8,1.8c-3.4,0.4-6.9,0.6-10.4,0.6h-18.2c-4.1,0.1-8.2-0.2-12.2-0.9
			c-3-0.5-5.8-1.4-8.5-2.8c-2.2-1.2-4-2.8-5.3-4.9c-1.3-2.1-2.2-4.3-2.7-6.7c-0.6-2.8-0.9-5.6-0.9-8.4c-0.1-3-0.1-6.4-0.1-10.1
			s0-7.1,0.1-10.1c0.1-2.8,0.4-5.6,0.9-8.4c0.5-2.4,1.4-4.6,2.7-6.7c1.3-2,3.2-3.7,5.3-4.9c2.6-1.4,5.5-2.3,8.5-2.8
			c4.1-0.6,8.2-0.9,12.3-0.9h18.2c3.5,0,6.9,0.2,10.4,0.6c2.7,0.3,5.3,0.9,7.8,1.7c2,0.7,3.9,1.7,5.6,3c1.5,1.2,2.7,2.7,3.6,4.4
			c0.9,1.8,1.6,3.7,1.9,5.6c0.4,2.2,0.5,4.5,0.5,6.7L952.9,35.7z M1040.7,78.6h-10.3V49.9h-54.7v28.6h-10.3V13.6h10.3v27.3h54.7
			V13.6h10.3V78.6z M1120.8,22.7h-54.6V41h52v9h-52v19.5h54.6v9h-64.9V13.6h64.9V22.7z"/>
		<path class="st0" d="M585.5,39.5c1.6-0.1,3.2-0.3,4.7-0.6c1-0.2,2-0.6,2.9-1.1c0.6-0.4,1.2-1,1.5-1.6c0.4-0.8,0.7-1.7,0.8-2.6
			c0.2-1.3,0.2-2.7,0.2-4c0-1.3-0.1-2.6-0.5-3.8c-0.3-0.8-0.8-1.4-1.5-1.8c-1.1-0.6-2.3-0.9-3.5-1c-2.1-0.2-4.2-0.3-6.3-0.3h-40.3
			v17h35.1C581.3,39.6,583.6,39.6,585.5,39.5z"/>
	</g>
	<g>
		<path class="st0" d="M86.6,65.2c1.8-0.7,2.5-15.2-5.3-33.2S61.8,2.5,60,3.2s-2.8,17.2,5,35.2C72.8,56.3,84.8,65.9,86.6,65.2z"/>
		<path class="st0" d="M92,78c-9.6,1.9-16.2-15-45.4-12c-4.5,0.5-7.5,3.4-6.1,6.9c1.1,2.6,4.8,11,5.9,13.6s5.1,3.3,6.1,5.5l0,0h8.1
			l25.7,22L83,92h9L92,78z"/>
		<path class="st0" d="M90.1,27.6c0.7,1.6,1.3,3.2,1.9,4.8V0H73.2C80.2,8.3,85.9,17.6,90.1,27.6z"/>
		<path class="st0" d="M50,0H0v48.6C44.6,29.7,47.5,11.2,50,0z"/>
		<path class="st0" d="M22.8,80.8c-1.5-3.6-5.9-0.2-10.1-5.8c0,0-3.7,1.2-4.7,1.6c-2.5,1-5.4,0.6-8-0.7V92h27.7L22.8,80.8z"/>
	</g>
</g>
</svg>
