<?xml version="1.0" encoding="utf-8"?>
<!-- Generator: Adobe Illustrator 23.0.2, SVG Export Plug-In . SVG Version: 6.00 Build 0)  -->
<svg version="1.1" id="Calque_1" xmlns="http://www.w3.org/2000/svg" xmlns:xlink="http://www.w3.org/1999/xlink" x="0px" y="0px"
	 viewBox="0 0 24 24" style="enable-background:new 0 0 24 24;" xml:space="preserve">
<style type="text/css">
	.st0{fill:#D6006D;}
</style>
<title>Bold/SVG/mail</title>
<desc>Created with Sketch.</desc>
<g id="Bold-Outline">
	<g id="mail">
		<path id="shape" class="st0" d="M23,9C23,9,23,9,23,9v8c0,2.2-1.8,4-4,4H5c-2.2,0-4-1.8-4-4V9c0,0,0,0,0,0V7c0-2.2,1.8-4,4-4h14
			c2.2,0,4,1.8,4,4C23,7,23,9,23,9z M21,8.3V7c0-1.1-0.9-2-2-2H5C3.9,5,3,5.9,3,7v1.3l8.7,2.6c0.2,0.1,0.4,0.1,0.6,0L21,8.3z
			 M21,10.3l-8.1,2.4c-0.6,0.2-1.2,0.2-1.7,0L3,10.3V17c0,1.1,0.9,2,2,2h14c1.1,0,2-0.9,2-2V10.3z"/>
	</g>
</g>
</svg>
