<?xml version="1.0" encoding="utf-8"?>
<!-- Generator: Adobe Illustrator 23.0.2, SVG Export Plug-In . SVG Version: 6.00 Build 0)  -->
<svg version="1.1" id="Calque_1" xmlns="http://www.w3.org/2000/svg" xmlns:xlink="http://www.w3.org/1999/xlink" x="0px" y="0px"
	 viewBox="0 0 24 24" style="enable-background:new 0 0 24 24;" xml:space="preserve">
<style type="text/css">
	.st0{fill:#FFFFFF;}
</style>
<title>Bold/SVG/message</title>
<desc>Created with Sketch.</desc>
<g id="Bold-Outline">
	<g id="message">
		<path id="shape" class="st0" d="M6.6,21l-3.8,1.4c-0.8,0.3-1.6-0.5-1.3-1.3L3,17.4C2.7,17,2.5,16.5,2.3,16c-0.5-1.3-0.8-2.6-0.8-4
			C1.5,6.2,6.2,1.5,12,1.5S22.5,6.2,22.5,12S17.8,22.5,12,22.5c-1.4,0-2.8-0.3-4-0.8C7.5,21.5,7.1,21.3,6.6,21z M4.2,19.8L6.4,19
			c0.3-0.1,0.6-0.1,0.9,0.1c0.5,0.3,1,0.6,1.5,0.8c1,0.4,2.1,0.6,3.3,0.6c4.7,0,8.5-3.8,8.5-8.5S16.7,3.5,12,3.5S3.5,7.3,3.5,12
			c0,1.1,0.2,2.2,0.6,3.3c0.2,0.5,0.5,1,0.8,1.5C5.1,17,5.2,17.3,5,17.6L4.2,19.8z M16,13c-0.6,0-1-0.4-1-1s0.4-1,1-1
			c0.6,0,1,0.4,1,1S16.6,13,16,13z M12,13c-0.6,0-1-0.4-1-1s0.4-1,1-1s1,0.4,1,1S12.6,13,12,13z M8,13c-0.6,0-1-0.4-1-1s0.4-1,1-1
			s1,0.4,1,1S8.6,13,8,13z"/>
	</g>
</g>
</svg>
