<?xml version="1.0" encoding="utf-8"?>
<!-- Generator: Adobe Illustrator 23.0.2, SVG Export Plug-In . SVG Version: 6.00 Build 0)  -->
<svg version="1.1" id="Calque_1" xmlns="http://www.w3.org/2000/svg" xmlns:xlink="http://www.w3.org/1999/xlink" x="0px" y="0px"
	 viewBox="0 0 24 24" style="enable-background:new 0 0 24 24;" xml:space="preserve">
<style type="text/css">
	.st0{fill:#D6006D;}
</style>
<title>Bold/SVG/navigation</title>
<desc>Created with Sketch.</desc>
<g id="Bold-Outline">
	<g id="navigation">
		<path id="shape" class="st0" d="M15.7,20.2c-0.5,1.4-2.1,2.1-3.4,1.6c-0.9-0.3-1.5-1.1-1.7-2l-0.8-4.6c-0.1-0.4-0.4-0.7-0.8-0.8
			l-4.6-0.8c-1.5-0.3-2.4-1.6-2.2-3.1c0.2-0.9,0.8-1.7,1.7-2l14.9-5.6c1-0.4,2.2,0.1,2.6,1.2c0.2,0.5,0.2,1,0,1.4L15.7,20.2z
			 M19.4,4.7L4.6,10.2c-0.2,0.1-0.4,0.3-0.4,0.5c-0.1,0.4,0.2,0.7,0.5,0.8l4.6,0.8c1.2,0.2,2.2,1.2,2.4,2.4l0.8,4.6
			c0,0.2,0.2,0.4,0.4,0.5c0.3,0.1,0.7,0,0.9-0.4L19.4,4.7z"/>
	</g>
</g>
</svg>
